<svg width="772" height="1115" viewBox="0 0 772 1115" fill="none" xmlns="http://www.w3.org/2000/svg">
<path d="M200 904.5C201.563 910.447 202.621 915.322 204.5 924C179.547 947.476 184.548 967.683 209.5 978.246C211.683 979.17 214.018 980.02 216.5 980.792C265.051 995.9 369.483 981.122 479.631 904.5C517.423 878.21 555.888 844.64 593 802.5C584.846 792.15 582.004 787.152 577.5 778.5C567.557 757.34 562.349 740.904 557.563 716C556.207 708.946 554.886 701.213 553.5 692.5C551.002 676.792 550.395 661.422 550.521 650C550.612 641.79 551.082 635.619 551.5 632.829C576.856 636.035 619.969 592.726 639 507.5C648.985 462.784 629.945 441.439 602.5 454.592C598.336 456.588 593.979 459.377 589.5 463C590.563 463.08 591.915 462.661 595 461.5C561.5 483.5 562 493 553 505C553.973 500.381 553.901 498.244 553 495C547.308 511.423 543.88 517.92 537.5 525.5C535.182 521.387 534.773 518.336 534.5 512.5C534.181 516.605 533.754 518.485 532.5 521C528.83 511.805 527.522 506.169 527 495C525.641 495.92 525.298 499.205 525 507C522.243 498.859 521.375 494.353 522 486.5C520.42 480.646 519.583 474.981 519.184 469.5C518.859 465.047 518.823 460.714 518.913 456.5C519.308 437.993 522.12 421.757 513.5 407.5C493.471 383.111 492.585 371.573 492.5 351C493.511 358.047 495.024 361.002 499 365C494.409 352.213 494.178 346.175 495 336C497.837 345.391 499.632 349.147 503.5 353C497.89 338.456 496.942 327.711 497.141 317.5C497.42 303.138 499.968 289.833 495 268.5C478.296 253.113 475.141 242.813 473 223.5C453.524 240.601 434.387 245.517 418 243.822C399.889 241.948 385.137 232 377 221.5C367.647 232.931 370.293 249.641 382.445 257.5C387.833 260.985 395.091 262.729 404 261.5C397.13 265.467 390.373 267.599 384 268.157C357.438 270.483 337.548 245.469 344 212C321.566 230.694 299.235 237.543 280.5 236.747C264.158 236.052 250.552 229.541 242 220C252.229 224.249 259.217 224.584 267.5 220.922C270.854 219.439 274.42 217.3 278.5 214.5C243.543 213.935 236.083 203.402 223.5 184C190.979 184 171.045 197.985 165.04 212C160.89 221.688 163.395 231.391 173 236.5C166.737 237.182 161.768 236.979 157.5 235.788C151.699 234.169 147.194 230.725 142.5 225.197C142.17 224.808 141.839 224.409 141.506 224C140.047 222.203 138.559 220.205 137 218C117 238.5 91.0248 303.845 82.4998 366C75.9998 412 83.9998 440 75.9998 474C72.3202 518.693 72.8804 562.416 77.4542 602.5C78.866 614.873 80.6602 626.899 82.8302 638.5C85.9382 655.116 89.8169 670.859 94.447 685.5C101.44 707.613 110.147 727.211 120.5 743.5C123.82 758.11 131.355 768.604 140.761 776.5C152.6 786.439 167.404 792.263 180.5 797L196 882.5L196.158 883.383C197.278 889.617 197.964 893.437 200 904.5Z" fill="#FDB27B"/>
<path d="M180.5 797C231 815.265 276 843 436 743C455.695 730.69 467.891 723.324 477.285 712.522C478.486 711.028 479.692 709.521 480.903 708C479.74 709.581 478.537 711.082 477.285 712.522C272.893 966.735 221.261 816.883 180.5 797Z" fill="#A1673E"/>
<path fill-rule="evenodd" clip-rule="evenodd" d="M519.184 469.5C519.583 474.981 520.42 480.645 522 486.5C521.375 494.353 522.243 498.859 525 507C525.298 499.205 525.641 495.92 527 495C527.522 506.169 528.831 511.805 532.5 521C533.754 518.485 534.181 516.605 534.5 512.5C534.773 518.336 535.182 521.387 537.5 525.5L510.5 633C478.5 718 384.5 755.5 328.5 763.5C325.759 749.695 325.186 741.909 324.5 728C287 803 196 789 188.5 774.5C179 782.5 161 774.5 145 767C129 759.5 118.243 721.996 116 695C113.817 703.297 112.728 708.144 113 720C103.778 710.121 100.317 701.471 94.4473 685.5C89.8172 670.859 85.938 655.116 82.8301 638.5C87.8753 661.499 91.4317 674.239 107 695C111.775 669.98 111.555 660.5 110.391 644.5C109.137 627.279 104.96 610.581 125.5 602.5C146.266 597.549 157.865 594.277 178 582.5C185.389 582.512 196.708 588 189.5 599.5C185.858 605.31 187.5 615.5 195 610.5C201.669 599.384 200.153 589.355 195 584.095C198.103 587.224 199.838 589.003 202.5 595C206.662 589.711 209.759 588.139 215.5 585.725C206.931 590.22 200.613 601.051 205 610.5C208.456 615.931 212 618 212 610.5C212 602 209.5 595 216.5 593L216.727 593.14C231.254 602.068 239.469 607.116 256 598.203C271.583 607.4 285.162 616.748 306.5 622C329.669 630.133 342 644.1 338 664.5C333 690 333 713.159 360.5 699.5C436 662 505.5 627 519.184 469.5ZM183 610.5C161.33 618.869 152.179 621.95 140.5 625C127 625 123.07 636.326 125.5 650C125.437 650.67 125.377 651.337 125.319 652C124.959 656.134 124.696 660.133 124.523 664C120.531 753.478 165.17 772.451 188.5 761.5C228.083 797.202 304.711 734.415 309.688 690.5C310.101 686.847 310.019 683.324 309.379 680C307.799 671.797 302.819 664.801 293.5 660.025C300.276 662.971 304.213 665.456 311.5 671.5C312.592 652.396 302.824 651.698 289.5 646.5C290.624 648.01 290.988 648.874 290.5 650.5C283.907 647.118 277.952 644.11 272.329 641.323C253.38 631.934 238.195 625.073 215 615C203 626.5 186.5 621 183 610.5Z" fill="#A1673E"/>
<path d="M184 699.5C176 690.5 163 675 174.5 671.995C178.306 671.938 182.547 672.144 187 672.563C192.597 673.09 198.527 673.954 204.346 675.057C204.898 675.162 205.45 675.269 206 675.378C216 678 221.5 681.5 228 686.5C220.286 692.484 214.125 697 208.5 703C201 711 193.333 710 184 699.5Z" fill="#A1673E"/>
<path d="M143.5 566C150.898 559.942 154.92 556.76 161 553C161 547.068 162.831 541.43 165.547 536C157.377 548.628 152.473 555.036 143.5 566Z" fill="#DB8F5B"/>
<path d="M283 569.5C279.5 577 270.5 590.385 256 598.203C252.163 595.938 248.204 593.683 243.979 591.5C265.336 588.922 281.466 572.5 282 559C287.837 563.937 291.28 568.025 297.767 578C299.865 582.194 302.092 586.684 304.5 591.5C295.54 581.203 290.874 576.461 283 569.5Z" fill="#DB8F5B"/>
<path d="M270.477 538.5C269.305 535.893 267.958 533.369 266.5 531C274.912 537.962 281.136 546.774 287.906 559C270.477 527.526 274.5 470.5 296.5 483.5C289.5 473 296.5 466.897 311.5 474C332.15 483.779 349.187 489.722 364 490.579C347 488.5 335.789 483.17 327.937 478.164C319.226 473.998 313 468.706 313 465C313 455.295 325.386 462.248 332 461.72C332.542 461.676 333.045 461.583 333.5 461.426C331.828 460.827 330.162 460.184 328.5 459.5C324.726 457.823 320.711 456.545 316.5 455.681C305.5 455.681 298.429 456.5 295 459.5C291 463 281.5 458.5 293.5 453.772C293.21 453.259 293.264 452.508 293.5 451.5C281.221 454.952 280.371 460.127 287.5 474C272 456 263 450.5 252.5 463C256 440.5 264.104 425.517 284.5 405C284.911 403.754 285.333 402.591 285.773 401.5C283.42 401.825 282.642 403.23 281.5 406.274C280.798 403.727 280.977 402.06 281.5 399C279.187 400.777 278.81 403.013 278.5 407.5C276.092 402.272 275.522 399.193 275.5 393.5C273.579 398.136 273.825 401.522 275 408C269.931 399.75 269.288 394.905 270.793 386C269.955 388.65 269.491 391.895 269 396C270.107 398.5 268.5 402.5 272 407C269.049 403.927 267.586 401.804 266.203 395.5C266.305 398.098 266.585 400.955 267 404.5C264.55 401.675 264.002 399.138 263.053 394.747L263 394.5C262.508 399.826 262.595 402.971 266 410C247.428 442.881 238.335 464 224 505.5C238.751 510.955 243.837 516.4 242.5 534C267 519 277.5 560 258 560C241.5 560 242 545.5 224 546.5C206.527 547.471 199.5 568.5 174.271 545.5C175.137 549.951 176.822 554.035 179.819 558.5C196 571 217 557.5 230 557.5C244.5 557.5 266.902 582.5 274.034 549C273.246 545.467 272.012 541.913 270.477 538.5Z" fill="#DB8F5B"/>
<path d="M172 543C167.452 544.354 165.997 547.093 164.5 554C164.794 555.938 165.5 557.991 166.547 560C166.547 554 173.5 552 175.151 554C173.185 550.692 172.006 547.384 172 543Z" fill="#DB8F5B"/>
<path d="M183 580.524C177.385 576.83 175.762 574.377 172.5 570.094C171.352 569.368 170.231 568.486 169.167 567.5C171.823 572.396 173.108 575.004 178.91 582C180.286 581.293 181.657 580.807 183 580.524Z" fill="#DB8F5B"/>
<path d="M537.5 525.5L510.5 633C498.503 673.586 491.223 693.974 480.903 708C273.5 968.5 221.5 817 180.5 797C327.5 1060 407 818 523.5 688.5C527.718 765.166 515.42 813.429 479.631 904.5C517.423 878.21 555.888 844.64 593 802.5C584.847 792.15 582.004 787.152 577.5 778.5C567.557 757.34 562.349 740.904 557.563 716C556.207 708.946 554.886 701.213 553.5 692.5C545 662.5 528.308 660.377 515.5 678.5L533.5 613.5C534.457 617.412 535.81 620.729 537.5 623.456C554 635 578 619.5 578 607C578 594 586 589 591 586.5C603.059 578.748 613.762 556.5 621.5 531.972C616.689 543.602 613.735 548.93 608 556C612.913 543.829 615.119 537.224 616.5 526.5C617.5 500 607 487 600 505.5C590.186 504.189 585.815 504.856 580.768 509.5C595.936 520.871 602.619 533.279 596.15 555C602.81 540.02 600.62 515.993 607 517C609.5 517.395 610.616 519.01 611 526.5C612 546 603.5 571 586 573.5C569.5 575.857 574 590 561 590C554.5 590 547.5 584.5 549.869 575.5C549.025 573.821 549.147 571.731 550.792 569C561 553 567.789 547.5 564.63 529.5C559.825 521.325 552.525 513.782 553 505C553.973 500.381 553.901 498.244 553 495C547.308 511.423 543.88 517.92 537.5 525.5Z" fill="#DB8F5B"/>
<path d="M593.5 481.5C587.678 487.177 582.799 492.726 578.808 498C583 481.5 595 454 614.5 454C637.5 454 637.5 484 626.374 513.5C636.959 458.951 610.358 465.064 593.5 481.5Z" fill="#DB8F5B"/>
<path d="M278.5 214.5C243.543 213.935 236.083 203.402 223.5 184C190.98 184 171.045 197.985 165.041 212C162.55 224.731 167.846 228.875 179 235.5C169.743 216.099 189.5 193 224.5 196.5C230.915 208.809 240 223 267.5 220.922C270.854 219.439 274.42 217.3 278.5 214.5Z" fill="#DB8F5B"/>
<path d="M360.5 699.5C436 662 505.5 627 519.184 469.5C518.859 465.047 518.824 460.714 518.914 456.5C518.914 406 471 394 497.141 317.5C497.29 281.5 465.5 263 467.5 238.5C448.928 249.791 437.656 245.687 418 243.822C399.889 241.948 385.137 232 377 221.5C367.647 232.931 370.294 249.641 382.445 257.5C380.57 250.261 380.703 246.819 383.5 242C405.587 259.233 419.845 263.617 452 252.5C513.5 319.5 409.5 351 433 415C428.012 412.592 423.088 408.893 418 404.848C421.553 407.922 423.439 409.625 426 412.5C423.325 410.822 422.228 410.421 420.5 410C425.7 413.655 427.448 415.593 430 419C426.704 416.281 425.191 415.455 422.5 414C428.957 419.489 432.207 422.728 437 429C434.311 426.617 432.923 425.791 430.5 424.5C436 429.391 438.452 432.217 442 437.5C439.485 435.371 438.225 434.84 436 434C440.143 437.183 441.845 439.17 444 443C438.404 438.013 432.001 435.289 418 430.5C422.163 431.786 424.464 432.345 428.5 433C421.424 428.908 415.895 426.872 404.5 423.5C408.098 424.483 410.15 424.717 414 424.5C407.267 421.673 403.085 420.649 395.5 419C397.004 419.098 400.156 419.759 403 419C395.664 416.926 391.835 416.245 385.5 416C388.573 415.456 389.791 414.987 391.5 414C384.161 412.573 379.286 411.997 370.5 411C372.918 411.152 374.417 411.099 377.5 410.5C371.487 408.657 365.779 407.906 352.5 406.974C347.535 407.249 342.364 407.509 336.5 407.43C320 410.5 311 421.5 328 424C332.528 424.241 337.042 424.738 341.5 425.459C329.5 422.5 335 412 343.5 411C356.5 409.471 375 409.794 387 420.5C397.648 430 401.5 436 399.5 440C397 444.5 392.5 444 387 441.298C399.37 448.279 409.141 456.64 414.5 465C409.547 460.886 407.086 459.128 403 456.5C406.21 462.025 410.046 465.228 420.5 471C412.131 469.893 409 468.44 406 466C403.599 464.047 402.305 463.307 400 462C402.975 464.826 404.608 466.562 406.5 469.5C404.175 467.779 402.286 466.435 400.5 465.25C390.015 469.872 383.064 468.711 371 467.811C368.619 468.091 365.972 468.32 363 468.5C374 474 369.5 484 358.5 484.5C351.311 485.219 343.412 483.871 336.242 481.5C353.633 487.329 363.723 490.097 391 481.5C382.324 486.85 374.5 490.764 367 490.682C379.642 490.819 390.67 487.034 401 478.5C397.819 480.544 396.695 480.798 394.5 481.5C397.708 478.587 399.659 476.559 403.5 472C409.53 474.17 412.711 476.121 418 481.5C455 484.5 463.712 519.5 445 543.5C422 573 397.843 601 388.5 637C371.5 702.5 331 716.5 338 664.5C333 690 333 713.159 360.5 699.5Z" fill="#DB8F5B"/>
<path d="M384 268.157C357.438 270.483 337.548 245.469 344 212C321.567 230.694 299.235 237.543 280.5 236.747C265.52 239.399 257.321 239.615 244 232C254.5 249.5 296 265 334.5 233C334.5 276 380.5 294.5 404 272.5C398 274.5 385 272.5 384 268.157Z" fill="#DB8F5B"/>
<path d="M176 243C155.445 243.342 148.601 238.94 142.5 225.197C147.194 230.725 151.699 234.169 157.5 235.788C160.805 238.723 164.299 240.312 176 243Z" fill="#DB8F5B"/>
<path d="M388 457.5C384.332 454.333 382.559 453.231 379.5 451.5C379.157 453.015 378.781 454.309 378.328 455.5C380.734 456.519 381.986 457.534 384.021 460C385.253 459.305 386.544 458.483 388 457.5Z" fill="#DB8F5B"/>
<path d="M553 505C562 493 561.5 483.5 595 461.5C591.915 462.661 590.563 463.08 589.5 463C593.979 459.377 598.336 456.588 602.5 454.592C605.108 453.449 609.768 454.046 613.1 454.048C613.562 454.016 614.029 454 614.5 454C614.071 454.035 613.6 454.048 613.1 454.048C594.425 455.322 582.898 481.899 578.807 498C569.087 510.844 564.629 522.057 564.629 529.5C559.825 521.325 552.525 513.782 553 505Z" fill="#BD7848"/>
<path d="M553.5 692.5C545 662.5 528.308 660.377 515.5 678.5L520.069 662C528.5 643 539.5 634.5 550.521 650C550.395 661.422 551.001 676.792 553.5 692.5Z" fill="#BD7848"/>
<path d="M204.5 924L207.458 938C197.5 951 197 968.5 209.5 978.246C184.548 967.683 179.546 947.476 204.5 924Z" fill="#BD7848"/>
<path d="M553.55 578.331C552.751 578.235 552.037 577.961 551.5 577.5C552.23 577.849 552.911 578.124 553.55 578.331C556.222 578.65 559.845 576.964 561 573.5C562.063 570.309 566.395 567.621 571.5 566.684C573.594 566.299 575.818 566.209 578 566.5C599 552 597 525.5 578 507.5C584.497 496.259 590.5 495 600 505.5C596.076 489.507 596.69 483.709 605 481.5C617.5 478.177 622.5 490 616.5 526.5C621.012 517.635 622.656 511.069 624 496.5C626.021 503.087 626.355 508.028 625 520C623.914 524.016 622.745 528.023 621.5 531.972C616.689 543.602 613.735 548.93 608 556C612.912 543.829 615.119 537.224 616.5 526.5C617.5 500 607 487 600 505.5C590.186 504.189 585.815 504.856 580.767 509.5C595.935 520.871 602.619 533.279 596.15 555C592.894 562.324 587.523 567.485 578 566.5C575.818 566.209 573.594 566.299 571.5 566.684C563.071 569.789 562.974 581.389 553.55 578.331Z" fill="#BD7848"/>
<path d="M472.999 223.5C475.14 242.813 478.296 253.113 494.999 268.5C499.967 289.833 497.42 303.138 497.141 317.5C496.942 327.711 497.89 338.456 503.499 353C499.632 349.147 497.837 345.391 494.999 336C494.177 346.175 494.409 352.213 498.999 365C495.024 361.002 493.51 358.047 492.499 351C492.585 371.573 493.471 383.111 513.499 407.5C522.12 421.757 519.308 437.993 518.913 456.5C518.913 406 471 394 497.141 317.5C497.29 281.5 465.5 263 467.5 238.5C449.171 249.643 437.952 245.792 418.768 243.896C418.511 243.873 418.255 243.848 418 243.822C418.257 243.846 418.513 243.871 418.768 243.896C434.983 245.36 453.828 240.334 472.999 223.5Z" fill="#BD7848"/>
<path d="M77.4541 602.5C78.8659 614.873 80.6601 626.899 82.8301 638.5C87.8754 661.499 91.4314 674.239 107 695C111.775 669.98 111.555 660.5 110.39 644.5C110.998 652.851 110.919 661.326 107 669C102.243 664.388 98.3674 659.849 95.1128 655C86.4608 642.108 82.1995 627.019 77.4541 602.5Z" fill="#BD7848"/>
<path d="M188.5 761.5C165.17 772.451 120.531 753.478 124.523 664C126.297 691.17 130.595 703.42 142.5 721.5C143.675 723.311 145 724.5 148.5 723C159.446 716.435 166.202 713.236 179.5 708.5C183.5 707.5 184 706 182 703C174.899 691.288 170.135 685.051 161.5 674C164.506 672.697 169.058 672.077 174.5 671.995C178.306 671.938 182.547 672.144 187 672.563C192.597 673.09 198.528 673.954 204.346 675.057C204.898 675.162 205.45 675.269 206 675.378C221.342 678.418 235.601 683.068 240.5 687.5C224.298 694.729 215.736 698.936 207.5 708.5C221.297 719.255 231.222 725.568 253.5 737.5C268 745.266 296 728 309.687 690.5C304.711 734.415 228.082 797.202 188.5 761.5Z" fill="#BD7848"/>
<path d="M270.477 538.5C269.305 535.893 267.957 533.369 266.499 531C274.911 537.962 281.136 546.774 287.906 559C290.993 564.574 294.193 570.858 297.766 578C291.279 568.025 287.836 563.937 281.999 559C281.466 572.5 265.335 588.922 243.978 591.5C239.226 589.045 234.135 586.682 228.499 584.5C224.274 582.864 219.626 583.56 215.499 585.724C209.759 588.139 206.662 589.711 202.499 595C199.837 589.003 198.102 587.224 194.999 584.095C191.956 580.988 187.643 579.544 182.999 580.524C177.384 576.83 175.761 574.377 172.499 570.094C175.147 571.769 177.937 572.615 180.499 572C174.353 570.192 169.284 565.247 166.547 560C166.547 554 173.499 552 175.151 554C176.806 556.786 179.021 559.572 181.565 563C179.824 560.827 178.132 558.756 175.999 557C172.964 554.5 169.999 559 171.999 562.5C173.335 564.838 180.235 566.5 181.999 568.5C189.499 577 198.499 582.5 211.499 579.5C203.418 578.391 197.747 576.428 193.499 574.041C187.247 567.949 182.858 563.029 179.818 558.5C195.999 571 216.999 557.5 229.999 557.5C244.499 557.5 266.901 582.5 274.034 549C273.245 545.467 272.011 541.913 270.477 538.5Z" fill="#BD7848"/>
<path d="M480.903 708C471.009 721.448 458.32 729.049 436 743C295.407 813.065 234.328 812.386 140.761 776.5C131.355 768.604 123.821 758.11 120.5 743.5C110.147 727.211 101.44 707.613 94.4473 685.5C100.317 701.471 103.778 710.121 113 720C112.728 708.144 113.817 703.297 116 695C118.243 721.996 129 759.5 145 767C161 774.5 179 782.5 188.5 774.5C196 789 287 803 324.5 728C325.186 741.909 325.759 749.695 328.5 763.5C384.5 755.5 478.5 718 510.5 633C498.503 673.586 491.223 693.974 480.903 708Z" fill="#845534"/>
<path d="M189.5 599.5C185.858 605.31 187.5 615.5 195 610.5C201.67 599.384 200.153 589.355 195 584.095C191.956 580.988 187.644 579.544 183 580.524C181.657 580.807 180.286 581.293 178.911 582C178.607 582.156 178.304 582.322 178 582.5C185.389 582.511 196.708 588 189.5 599.5Z" fill="#845534"/>
<path d="M212 610.5C212 618 208.456 615.931 205 610.5C200.613 601.051 206.932 590.22 215.5 585.725C219.626 583.56 224.275 582.864 228.5 584.5C234.136 586.682 239.226 589.045 243.979 591.5C248.204 593.683 252.163 595.939 256 598.203C239.469 607.116 231.254 602.068 216.727 593.14L216.5 593C209.5 595 212 602 212 610.5Z" fill="#845534"/>
<path d="M176.5 683C173 678.5 175.5 672.563 187 672.563C192.597 673.09 198.528 673.954 204.346 675.057C215 679.5 223.5 685.5 217.5 690.5C204.5 700 189.333 699.5 176.5 683Z" fill="#845534"/>
<path d="M269 396C267.611 392.864 267.365 389.922 267 384.5C266.277 388.499 266.053 391.727 266.203 395.5C267.586 401.804 269.049 403.927 272 407C268.5 402.5 270.107 398.5 269 396Z" fill="#845534"/>
<path d="M273.5 392.5C273.607 386.779 274.509 383.663 277 378C273.662 380.037 271.901 382.5 270.793 386C269.288 394.905 269.931 399.75 275 408C273.825 401.522 273.579 398.136 275.5 393.5C275.522 399.193 276.092 402.272 278.5 407.5C278.81 403.013 279.187 400.777 281.5 399C280.977 402.06 280.798 403.727 281.5 406.274C282.642 403.23 283.42 401.825 285.773 401.5C289.369 392.568 294.107 388.47 303.5 383C297.96 384.551 294.91 386.013 289.5 389C292.95 384.672 296.097 382.057 301.5 379.374C303.363 378.448 305.495 377.515 308 376.5C300.077 377.42 296.697 378.537 291.5 381C292.221 379.835 293.625 378.807 297.5 376.5C287.159 379.212 283.826 382.532 280 390C280.678 385.711 282.765 382.485 287 376.5C279.142 379.952 276.533 383.833 273.5 392.5Z" fill="#845534"/>
<path d="M380.5 410.5C385.408 409.799 389.208 409.884 397 410.5C377.48 405.395 365.716 406.242 352.5 406.974C365.779 407.906 371.487 408.657 377.5 410.5C374.417 411.099 372.918 411.152 370.5 411C379.286 411.997 384.161 412.573 391.5 414C389.791 414.987 388.573 415.456 385.5 416C391.835 416.245 395.664 416.926 403 419C400.156 419.759 397.004 419.098 395.5 419C403.085 420.649 407.267 421.673 414 424.5C410.15 424.717 408.098 424.483 404.5 423.5C415.895 426.872 421.424 428.908 428.5 433C424.464 432.345 422.163 431.786 418 430.5C432.001 435.289 438.404 438.013 444 443C441.845 439.17 440.143 437.183 436 434C438.225 434.84 439.485 435.371 442 437.5C438.452 432.218 436 429.391 430.5 424.5C432.923 425.791 434.311 426.617 437 429C432.207 422.728 428.957 419.489 422.5 414C425.191 415.455 426.704 416.281 430 419C427.448 415.593 425.7 413.655 420.5 410C422.228 410.421 423.325 410.822 426 412.5C423.439 409.625 421.553 407.922 418 404.848C408.296 397.134 397.992 388.164 385.5 384.5C390.219 387.34 393.002 388.867 396 392.5C383.101 385.627 376.591 382.833 367.5 381.5C373.727 384.336 378.7 386.675 383.5 389.214C378.781 387.407 374.665 385.932 371 384.736C355.845 379.789 348.404 379.603 338 380.312C344.113 381.305 349.533 382.743 355 384.5C349.452 382.962 347.119 383.31 343 384C353.2 384.955 358.917 386.025 364 387.878C366.02 388.615 367.939 389.475 370 390.5C361.934 388.579 358.907 388.405 355 389C365.877 390.721 371.636 392.596 381.5 397C375.161 395.101 371.651 394.362 365.5 394C378.253 397.251 385.098 400.021 397 406C395.827 403.537 394.813 402.448 393.016 400.517L393 400.5C401.651 409.152 409.994 411.308 419 417.916C421.444 419.71 423.938 421.831 426.5 424.5C415.784 420.049 409.901 418.084 399.5 415C405.072 415.044 409.323 415.995 418.5 419C405.376 412.339 396.672 411.218 380.5 410.5Z" fill="#845534"/>
<path d="M112 377C118.321 375.644 120.484 375.617 122.5 376.5C102.983 379.753 92.4515 389.066 87 399.603C84.9783 400.697 83.6828 401.41 82.5 403.5C83.9287 398.16 85.7032 395.004 90 389.207C86.9222 390.421 85.7238 391.794 83.5 395C87.1877 388.736 89.9922 385.153 97.5 378.5C93.5423 380.618 91.2529 382.303 87 386.5C91.372 380.817 93.6366 377.694 102.5 370.5C99.2246 371.993 97.2827 373.11 93.5 376C95.1262 374.086 96.6323 372.45 98.2971 371C102.309 367.507 107.243 365.097 117 362.5C112.418 364.589 110.144 365.775 108 368C116.428 364.25 121.355 362.879 131 363.5C123.881 364.697 121.584 365.467 120 367C132.17 364.907 138.149 364.839 147.5 366.362C139.528 366.525 130.58 368.077 121 371C126.582 370.608 129.33 370.794 133 372.5C120.392 372.903 116 374 112 377Z" fill="#845534"/>
<path d="M167.5 373.5C172.658 375.48 175.674 377.569 181.5 383.5C177.81 374.889 170.246 369.547 160 367.414C168.558 365.834 173.606 368.318 183 378C181.012 373.031 178.59 371.469 175 368C183.536 372.508 187.47 376.249 191 388C192.283 381.881 190.349 378.907 187.5 373.5C192.708 378.547 194.725 382.739 196 393.5C197.267 391.881 197.146 389.176 197 384.5C199.151 390.709 199.031 393.855 197 399C197.342 396.915 197.42 395.855 197 394.5C195.839 395.503 195.441 396.421 195 398.5C194.655 394.359 194.417 392.154 193 391C192.703 393.301 192.816 394.726 193.5 397.5C192.191 394.818 191.407 393.869 190 393C189.952 394.616 190.161 395.703 191 398C187.779 394.525 186.092 392.819 184.413 392.5C182.032 385.472 176.649 379.905 167.5 373.5Z" fill="#845534"/>
<path d="M117.5 386.5C109.778 386.425 107.745 385.85 105.5 384.5C117.017 383.823 126.01 387.735 134.5 390.329C120 387.5 118 390 112 389.207C108.271 388.559 104.721 388.262 99 388C108.127 387.613 112.059 387.274 117.5 386.5Z" fill="#845534"/>
<path d="M520.069 662L533.5 613.5C534.457 617.412 535.81 620.729 537.5 623.456C540.935 628.997 545.763 632.104 551.5 632.829C551.082 635.619 550.612 641.79 550.521 650C539.5 634.5 528.5 643 520.069 662Z" fill="#845534"/>
<path d="M435.999 743C275.999 843 231 815.265 180.5 797C167.404 792.263 152.6 786.439 140.761 776.5C234.328 812.386 295.406 813.065 435.999 743Z" fill="#111213"/>
<path d="M207.458 938L216.5 980.792C214.018 980.02 211.683 979.17 209.5 978.246C184.548 967.683 179.547 947.476 204.5 924L207.458 938Z" fill="#111213"/>
<path d="M270.477 538.5C289.5 560 270.477 588.5 244 580.5C272.057 580.5 277.6 564.973 274.034 549C273.246 545.467 272.012 541.913 270.477 538.5Z" fill="#111213"/>
<path d="M236.5 572C228.943 564.451 221.5 566.5 213 569.5C215 557 247 557 249.5 572C244.446 569.512 241.602 570.402 236.572 571.978L236.5 572Z" fill="#111213"/>
<path d="M182 568.5C189.5 577 198.5 582.5 211.5 579.5C203.418 578.391 197.747 576.428 193.5 574.041C187.708 570.786 184.564 566.742 181.566 563C179.825 560.827 178.133 558.756 176 557C172.964 554.5 170 559 172 562.5C173.336 564.838 180.235 566.5 182 568.5Z" fill="#111213"/>
<path d="M187.731 495C193.93 476.775 197.771 462.016 204.5 445.5C208.495 435.695 209.408 425.889 206.674 418C198.427 404.897 193.095 402.564 183.5 399C185.649 400.528 187.542 402.033 189.2 403.5C204.904 417.392 199.497 427.831 190 421.5C188.267 420.344 186.116 419.006 183.5 417.679C178.976 415.384 173.059 413.124 165.5 411.907C163.16 411.531 160.662 411.254 158 411.108C157.022 411.054 156.022 411.017 155 411C149.792 410.912 145.149 411.096 141 411.508C129.196 412.681 121.392 415.694 115.954 419.5C112.478 421.934 109.969 424.692 108 427.5C109.863 426.068 110.821 425.643 112.5 425C107.779 429.961 106.376 433.018 104 438.5C117.908 419.894 126.5 413.5 154.5 413.5C181.5 413.5 193.3 431.5 198.5 438C200.5 440.5 202.227 441.399 200.5 445.5C197.241 454.79 195.008 462.051 193.212 469C192.648 471.18 192.128 473.329 191.632 475.5C190.27 481.465 189.096 487.598 187.731 495Z" fill="#111213"/>
<path d="M164.5 554C162.349 539.801 172.416 531.493 181.639 511C176.614 519.025 169.928 527.241 165.547 536C162.831 541.43 161 547.068 161 553C161 556.974 164.546 563.218 169.167 567.5C170.231 568.486 171.352 569.368 172.5 570.094C175.147 571.769 177.937 572.615 180.5 572C174.353 570.192 169.284 565.247 166.547 560C165.5 557.991 164.794 555.938 164.5 554Z" fill="#111213"/>
<path d="M414.5 465C409.547 460.885 407.086 459.128 403 456.5C397.5 453.5 391.5 440 341 428C319.735 422.947 309 430 300 438.5C295.11 443.119 289.5 443.667 287 444.5C284 445.5 276 449 278.5 461C272.892 449.098 270.264 442.712 274 436C265.057 440.581 261.762 445.125 257 454.5C259.686 444.941 263.032 438.169 269 432.344C274.221 427.248 281.45 422.877 292 418C275 433.5 292 438.5 299 431C300.699 429.18 303.308 427.695 306.5 426.562C312.375 424.477 320.224 423.585 328 424C332.528 424.241 337.042 424.738 341.5 425.459C358.134 428.149 374.002 433.962 387 441.298C399.37 448.279 409.141 456.64 414.5 465Z" fill="#111213"/>
<path d="M138.5 628C132.785 630.566 131.794 632.999 131.5 638C131.5 639.5 136 632.5 146 638C148.575 639.416 155.472 638.408 166.5 639.317C167.152 639.371 167.819 639.432 168.5 639.5C178.5 640.5 188.5 645.5 205 646.5C229.206 647.967 233.265 649.724 241 651.606C242.212 651.901 243.515 652.199 245 652.5C270.208 657.601 284.789 658.921 293.5 660.025C299.303 660.76 302.501 661.401 304.5 663C305.5 660 301.5 655 298.5 653.5C295.5 652 293.5 653.5 293.5 656C292.471 655.916 291.472 655.833 290.5 655.75C274.003 654.333 265.25 652.821 246.5 648C237.962 645.804 230.733 644.68 224 643.988C216.933 643.262 210.413 643.012 203.5 642.5C195 641.87 182.5 636.5 177.5 636C176.247 635.875 174.527 635.806 172.5 635.758C165.628 635.594 155.222 635.658 147.5 634.5C145.982 634.272 144.649 633.543 143.5 632.649C140.863 630.599 139.197 627.687 138.5 628Z" fill="#111213"/>
<path d="M561 573.5C559.5 578 553.833 579.5 551.5 577.5C550.801 576.901 550.241 576.24 549.869 575.5C549.025 573.822 549.147 571.731 550.792 569C552.051 566.909 554.204 564.443 557.5 561.5C572.208 548.368 569.947 538.547 564.63 529.5C564.63 522.057 569.088 510.844 578.808 498C582.799 492.726 587.678 487.177 593.5 481.5C610.358 465.064 636.96 458.951 626.374 513.5C625.971 515.578 625.514 517.744 625 520C626.356 508.028 626.021 503.087 624 496.5C622.656 511.069 621.012 517.635 616.5 526.5C622.5 490 617.5 478.177 605 481.5C596.69 483.71 596.077 489.507 600 505.5C590.5 495 584.497 496.259 578 507.5C597 525.5 599 552 578 566.5C575.818 566.209 573.594 566.299 571.5 566.684C566.396 567.621 562.064 570.309 561 573.5Z" fill="#111213"/>
<path fill-rule="evenodd" clip-rule="evenodd" d="M314.5 437.001C337 420.001 385 439.501 406 466.001C403.599 464.048 402.305 463.308 400 462.001C402.975 464.826 404.608 466.563 406.5 469.501C404.175 467.78 402.286 466.435 400.5 465.25C397.948 463.555 395.606 462.185 392.5 460.501C371.394 469.218 352.124 468.091 333.5 461.425C331.828 460.827 330.162 460.185 328.5 459.501C324.726 457.823 320.711 456.546 316.5 455.681C310.669 454.484 304.462 454.079 298 454.501C295.248 454.795 293.954 454.575 293.5 453.772C293.21 453.259 293.264 452.508 293.5 451.501C294 448.001 298 449.467 314.5 437.001ZM348.5 450.001C347.722 448.001 340.5 451.501 343 456.001C348.5 463.5 358.5 471 369.5 460.001C373 456.501 367.694 452.501 367 453.501C361.5 461.426 352 459 348.5 450.001ZM379.5 451.501C379.157 453.016 378.781 454.309 378.328 455.501C377.292 458.226 375.854 460.416 373.5 463.501C377.891 462.799 380.744 461.849 384.021 460.001C385.252 459.306 386.544 458.484 388 457.501C384.332 454.333 382.559 453.232 379.5 451.501ZM341.5 438.001C330.5 437.001 321 439.001 311.5 446.501C308.5 448.501 310.5 448.5 308.5 449C306 449.625 308.5 453 310 452.5C315.853 452.049 312.076 452.5 317 453.792C318.209 454.109 319.521 454.508 321 455.001C330 458.001 335.5 461.001 345 463.001C339.42 459.567 336.42 449.131 339.479 441.501C339.983 440.243 340.651 439.062 341.5 438.001ZM352 444.501C352 439.001 343.5 439.001 343.5 444.501C343.501 449.5 351.999 449.5 352 444.501Z" fill="#111314"/>
<path fill-rule="evenodd" clip-rule="evenodd" d="M106.5 438.501C135 405.001 178 411.001 197.5 442.001C199.324 445.203 198 448.5 195 448.001C191.22 447.549 187.555 447.327 184 447.257C177.657 447.134 171.665 447.498 166 447.917C170.004 446.912 172.247 446.345 175.5 443.001C178.5 439.917 173.5 436.001 171 439.501C167.5 444.4 159 442.5 156 437.001C153.5 431.501 146 438.001 150.5 442.001C152.783 444.873 154.902 446.291 160.5 448.333C155.02 448.742 149.862 449.063 145 448.856C134.978 448.429 126.217 445.76 118.5 437.001C114.836 441.203 112.353 442.681 107.5 444.501C109.864 442.59 111.249 441.524 112.5 439.501C108.872 440.789 107.125 441.216 104 441.978C106.3 441.09 108.557 439.796 110.5 438.501H106.5ZM147 424.001C135.675 425.572 130.63 427.969 123.5 434.501C124.559 436.443 125.675 438.095 126.944 439.501C131.493 444.538 138.016 446.421 151 447.257C144.872 442.961 142.111 434.5 144.556 428.001C145.103 426.546 145.911 425.19 147 424.001ZM195 446.001C195.5 441.001 190 442.001 190.5 445.501C191.748 446.083 192.619 446.284 195 446.001ZM183.5 432.501C183.939 438.27 182.958 441.078 179.5 445.501C186 446.5 192.5 440 183.5 432.501ZM158 429.501C158 424.001 150.5 424.001 150.5 429.501C150.5 434.5 158 434.5 158 429.501Z" fill="#111314"/>
<path d="M553 495C547.308 511.423 543.88 517.92 537.5 525.5C535.182 521.387 534.773 518.336 534.5 512.5C534.181 516.605 533.754 518.485 532.5 521C528.831 511.805 527.522 506.169 527 495C525.641 495.92 525.299 499.205 525 507C522.243 498.859 521.375 494.353 522 486.5C520.42 480.646 519.583 474.981 519.184 469.5C518.859 465.047 518.824 460.714 518.913 456.5C519.308 437.993 522.12 421.757 513.5 407.5C493.472 383.111 492.585 371.573 492.5 351C493.511 358.047 495.024 361.002 499 365C494.409 352.213 494.178 346.175 495 336C497.837 345.391 499.632 349.147 503.5 353C497.89 338.456 496.942 327.711 497.141 317.5C497.421 303.138 499.968 289.833 495 268.5C478.296 253.113 475.141 242.813 473 223.5C453.524 240.601 434.387 245.517 418 243.822C399.889 241.948 385.137 232 377 221.5C367.647 232.931 370.293 249.641 382.445 257.5C387.833 260.985 395.091 262.729 404 261.5C397.13 265.467 390.373 267.599 384 268.157C357.438 270.483 337.548 245.469 344 212C321.567 230.694 299.235 237.543 280.5 236.747C264.158 236.052 250.552 229.541 242 220C252.23 224.249 259.217 224.584 267.5 220.922C270.854 219.439 274.42 217.3 278.5 214.5C243.543 213.935 236.083 203.402 223.5 184C190.979 184 171.045 197.985 165.04 212C160.89 221.688 163.395 231.391 173 236.5C166.737 237.182 161.768 236.979 157.5 235.788C151.699 234.169 147.194 230.725 142.5 225.197C142.17 224.808 141.839 224.409 141.506 224C140.047 222.203 138.559 220.205 137 218C117 238.5 91.0249 303.845 82.5 366C76 412 84 440 76 474C79.6185 446.5 62.5 430 67 418C48.4546 400.923 45.4116 391.136 46 373.5C17.5652 349.317 17.1334 337.45 27.5 317.5C22.8595 311.699 21.5364 308.325 22.5 302C15.9162 306.123 13.7807 310.853 12.9999 324C-6.39723 296.258 -1.42179 284.519 17.5 266C2.70288 248.03 6.33129 237.331 17.5 218C7.00035 184 25.9999 155 66.4999 152C56.2684 131.59 59.0323 125.424 66.4999 116C69.3001 79.215 102 51.5 125.5 60.5C109.5 72.5 137 87.5 158 51.5C172.883 25.9855 192.085 18.126 213 31.4999C228.858 25.8115 237.459 25.1385 252 31.4999C286.132 -7.33052 344 -11.0001 361.5 26.9999C371.61 26.3508 377.182 28.6774 387 35.4999C393.125 26.6914 391.09 19.7732 383.5 5.99986C411.557 13.5878 423.361 21.6229 432.5 47.5C471.597 39.0473 484.761 47.6361 499 77C522.595 81.8875 529.443 87.5942 539 99C558.678 98.8066 563.337 92.2871 568 77C582.882 98.5458 584.891 110.469 578.808 131.5C689 131.5 618 241.5 689 211.5C688.989 226.579 685.312 232.773 675 241.5C734 287.5 691 330.5 723 362.5C717.192 367.533 712.491 366.417 704.5 365.5C714.002 399.851 705.695 413.835 685 436.5C684.606 443.012 683.672 445.325 681.5 448.5C682.778 476.558 676.246 489.735 662.5 512.5C661.013 528.734 654.975 539.053 644 557.5C644.611 583.846 638.812 595.751 621 613.5C622.225 648.937 611.978 657.215 589 667C589.186 691.155 579.564 700.78 557.563 716C556.207 708.946 554.886 701.213 553.5 692.5C551.002 676.792 550.395 661.422 550.521 650C550.612 641.79 551.082 635.619 551.5 632.829C576.856 636.035 619.969 592.726 639 507.5C650.5 456 623.5 435.5 589.5 463C590.563 463.08 591.916 462.661 595 461.5C561.5 483.5 562 493 553 505C553.973 500.381 553.901 498.244 553 495Z" fill="#111213"/>
<path d="M683 827.5C716.442 840.704 735.995 849.929 772 869C767.1 874.431 762.192 879.764 757.278 884.999C715.266 863.939 691.908 853.612 650.5 836.999C476.233 1059.54 225.559 1104.31 157.257 1027.66C151.098 1020.75 146.421 1012.85 143.418 1004C150.181 1015.33 155.057 1021.18 167.309 1030C236.757 1085.76 439.299 1068.93 636 827.5C626.841 809.292 619.5 800.5 612 800.5C614.75 803.498 614.5 805.499 607.5 814.999C597.601 826.034 587.579 836.529 577.47 846.499C398.062 1023.46 191.474 1035.22 169.296 966C167.283 940.732 177.121 927.542 200 904.5C201.563 910.447 202.621 915.322 204.5 924C179.547 947.476 184.548 967.683 209.5 978.246C211.683 979.17 214.018 980.02 216.5 980.792C265.051 995.9 369.483 981.122 479.631 904.5C517.423 878.21 555.888 844.64 593 802.5C584.847 792.15 582.004 787.152 577.5 778.5C606.739 776.137 627.656 783 640.5 800.5C648.251 811.062 659 818.023 683 827.5Z" fill="#1D1917"/>
<path d="M303.5 383C297.96 384.551 294.91 386.014 289.5 389C292.95 384.672 296.097 382.058 301.5 379.374C317.231 378.293 328.459 378.762 338 380.312C344.113 381.306 349.533 382.743 355 384.5C349.452 382.962 347.119 383.31 343 384C353.2 384.955 358.917 386.025 364 387.878C366.02 388.615 367.939 389.475 370 390.5C361.934 388.579 358.907 388.405 355 389C365.877 390.721 371.636 392.597 381.5 397C375.161 395.102 371.651 394.362 365.5 394C378.253 397.252 385.098 400.022 397 406C395.827 403.537 394.813 402.448 393.016 400.518L393 400.5C401.651 409.152 409.994 411.308 419 417.916C421.444 419.71 423.938 421.832 426.5 424.5C415.784 420.049 409.901 418.084 399.5 415C405.072 415.044 409.323 415.995 418.5 419C405.376 412.339 396.672 411.218 380.5 410.5C385.408 409.799 389.208 409.884 397 410.5C377.48 405.395 365.716 406.242 352.5 406.974C347.534 407.25 342.364 407.509 336.5 407.43C331.985 407.369 327.059 407.108 321.5 406.5C323.899 405.997 324.576 405.493 325.5 404.5C318.646 405.683 314.819 405.881 308 406C311.464 404.866 312.382 404.2 313.5 403C305.532 404.315 301.525 404.711 295 405C297.319 403.117 299.216 401.904 303.5 399.5C297.672 400.48 295.025 402.155 290.5 405.5C291.408 403.769 292.548 402.492 295 400C292.697 401.032 290.891 402.238 287.873 404.251L287.5 404.5C289.609 401.243 291.906 399.107 297 395C290.648 397.741 288.2 400.159 284.5 405C284.911 403.754 285.333 402.591 285.773 401.5C289.369 392.568 294.107 388.471 303.5 383Z" fill="#111314"/>
<path d="M112 377C118.321 375.645 120.484 375.618 122.5 376.5C102.983 379.753 92.4515 389.066 87 399.603C85.7477 402.024 84.7635 404.509 84 407C86.2007 403.25 87.7176 401.432 89.2211 400.5C92.2599 398.379 94.8101 397.294 100.5 395.5C96.7733 395.57 95.1576 396.016 92.5 397C94.649 394.562 97.3158 393.602 104.5 392.5C100.685 391.572 98.6467 391.936 95 392.5C98.4988 390.309 102.601 389.634 115.954 390C114.554 389.687 113.267 389.427 112 389.207C108.271 388.559 104.721 388.262 99 388C108.127 387.613 112.059 387.274 117.5 386.5C109.778 386.425 107.745 385.85 105.5 384.5C117.017 383.823 126.01 387.735 134.5 390.329C137.196 391.153 139.841 391.844 142.5 392.212C143.827 392.396 145.158 392.5 146.5 392.5C158 393 165.5 389 179.5 396.5C177.586 393.359 175.499 391.81 172 389C177.099 391.117 179.639 392.787 183.5 397C182.341 393.021 180.937 391.232 178.5 388C181.004 389.139 182.423 390.651 185 394.5C184.83 393.82 184.634 393.154 184.413 392.5C182.032 385.472 176.649 379.905 167.5 373.5C172.658 375.48 175.674 377.569 181.5 383.5C177.81 374.89 170.246 369.547 160 367.414C156.185 366.619 151.998 366.27 147.5 366.362C139.528 366.526 130.58 368.077 121 371C126.582 370.609 129.33 370.795 133 372.5C120.392 372.903 116 374 112 377Z" fill="#111314"/>
<path d="M156 437C153.5 431.5 146 438 150.5 442C152.782 444.872 154.901 446.291 160.5 448.333C162.298 448.198 164.131 448.054 166 447.916C170.003 446.912 172.246 446.344 175.5 443C178.5 439.916 173.5 436 171 439.5C167.5 444.4 159 442.5 156 437Z" fill="#623D29"/>
<path d="M348.5 450C352 459 361.5 461.425 367 453.5C367.694 452.5 373 456.5 369.5 460C358.5 471 348.5 463.5 343 456C340.5 451.5 347.722 448 348.5 450Z" fill="#623D29"/>
<path d="M82.4998 366C75.9998 412 83.9998 440 75.9998 474C72.3202 518.693 72.8804 562.416 77.4542 602.5C82.1996 627.019 86.4609 642.108 95.1129 655C82.4998 583.5 75.015 487.5 107.5 470C102.506 469.768 99.4954 470.593 93.9998 474C96.5595 468.026 98.3271 464.73 102.5 459C97.4495 460.278 94.6814 461.504 89.9998 464.5C91.5744 454.92 91.8322 449.187 91.4998 438.5C92.6499 440.8 94.2133 442.108 95.9998 442.71C98.3964 443.516 102.171 440.752 103.801 438.754C97.2546 446.74 87.5502 421.309 92.4999 402.5C90.7534 403.131 89.5939 403.945 87.4999 405.5C88.5171 403.276 89.3423 401.999 92.4999 399.5C91.2703 399.641 90.2488 399.863 89.2209 400.5C87.7174 401.431 86.2006 403.25 83.9999 407C84.7634 404.509 85.7476 402.024 86.9999 399.603C84.9782 400.697 83.6827 401.41 82.4999 403.5C83.9285 398.16 85.703 395.004 89.9999 389.207C86.922 390.421 85.7237 391.794 83.4999 395C87.1876 388.736 89.9921 385.153 97.4999 378.5C93.5422 380.618 91.2527 382.303 86.9999 386.5C91.3719 380.817 93.6364 377.694 102.5 370.5C99.2245 371.993 97.2825 373.11 93.4999 376C95.1261 374.086 96.6321 372.45 98.297 371C120.825 314.404 112 277 141.506 224C140.047 222.203 138.559 220.205 137 218C117 238.5 91.0248 303.845 82.4998 366Z" fill="#FDCEA1"/>
<path d="M187 511C182 522 173.334 529 173.5 537.5C173.556 540.372 173.784 542.994 174.271 545.5C175.137 549.951 176.822 554.035 179.819 558.5C182.858 563.029 187.247 567.949 193.5 574.041C187.873 570.878 184.745 566.971 181.821 563.32L181.565 563C179.021 559.572 176.807 556.786 175.151 554C173.185 550.692 172.006 547.384 172 543C167.452 544.354 165.997 547.093 164.5 554C162.348 539.801 172.416 531.493 181.638 511C183.133 507.679 184.605 504.038 186 500C186.599 498.303 187.174 496.637 187.731 495C193.93 476.775 197.771 462.016 204.5 445.5C208.495 435.695 209.408 425.89 206.674 418C205.644 415.027 204.096 412.326 202 410C211.156 416.179 215 428.5 212.5 439.5C203 466 198.818 485 187 511Z" fill="#FDCEA1"/>
<path d="M184 447.257C190.324 447.993 191.495 450.177 193 454.5C189.332 449.784 182.231 449.324 174 449.955C166.524 450.528 158.115 452 150.5 452C141.879 452.546 136.383 451.521 129.5 449.042C137.18 450.24 140.469 450.125 145 448.856C149.861 449.063 155.02 448.742 160.5 448.333C162.298 448.198 164.131 448.054 166 447.916C171.665 447.498 177.657 447.134 184 447.257Z" fill="#FDCEA1"/>
<path d="M125 463.641C123.569 463.142 122.075 462.592 120.5 462C112.272 454.072 112.493 451.074 112.959 444.738L112.977 444.5C114.409 443.326 115.885 442.017 117.5 440.5C118.872 443.171 120.009 444.503 123 446.5C117 451 118.5 457.5 125 463.641Z" fill="#FDCEA1"/>
<path d="M180.5 531C184 519 209.5 524.5 206 533C198.5 546.5 178.91 538.5 180.5 531Z" fill="#FDCEA1"/>
<path d="M392.5 460.5C371.394 469.218 352.124 468.091 333.5 461.426C333.045 461.583 332.542 461.676 332 461.72C340 465 349.5 468.5 363 468.5C365.971 468.32 368.619 468.091 371 467.811C381.841 466.535 387.17 464.19 392.5 460.5Z" fill="#FDCEA1"/>
<path d="M373.5 463.5C377.891 462.799 380.744 461.848 384.021 460C381.985 457.534 380.733 456.519 378.328 455.5C377.291 458.225 375.854 460.415 373.5 463.5Z" fill="#FDCEA1"/>
<path d="M150.5 429.5C150.5 424 158 424 158 429.5C158 434.5 150.5 434.5 150.5 429.5Z" fill="white"/>
<path d="M343.5 444.5C343.5 439 352 439 352 444.5C352 449.5 343.5 449.5 343.5 444.5Z" fill="white"/>
<path d="M123.5 434.5C130.63 427.969 135.675 425.571 147 424C145.911 425.189 145.103 426.546 144.556 428C142.11 434.5 144.871 442.961 151 447.257C138.015 446.421 131.492 444.538 126.944 439.5C125.675 438.094 124.559 436.443 123.5 434.5Z" fill="white"/>
<path d="M311.522 446.5C321.022 439 330.522 437 341.522 438C340.673 439.061 340.004 440.242 339.5 441.5C336.441 449.13 339.442 459.566 345.022 463C335.522 461 330.022 458 321.022 455C319.543 454.507 318.231 454.109 317.022 453.792C312.098 452.5 311 453 308 453C306.5 452.5 306.559 448.326 309 447.5C310.478 447 309 447.5 311.522 446.5Z" fill="white"/>
<path d="M183.5 432.5C183.94 438.27 182.958 441.077 179.5 445.5C186 446.5 192.5 440 183.5 432.5Z" fill="#FEB279"/>
<path d="M190.5 445.5C191.749 446.082 192.619 446.284 195 446C195.5 441 190 442 190.5 445.5Z" fill="#FEB279"/>
<path d="M388 457.5C384.332 454.333 382.559 453.231 379.5 451.5C379.157 453.015 378.781 454.309 378.328 455.5C377.291 458.225 375.854 460.415 373.5 463.5C377.891 462.799 380.744 461.848 384.021 460C385.253 459.305 386.544 458.483 388 457.5Z" fill="#FEB279"/>
<path d="M183.5 432.5C183.94 438.27 182.958 441.077 179.5 445.5C186 446.5 192.5 440 183.5 432.5Z" fill="white"/>
<path d="M190.5 445.5C191.749 446.082 192.619 446.284 195 446C195.5 441 190 442 190.5 445.5Z" fill="white"/>
<path d="M388 457.5C384.332 454.333 382.559 453.231 379.5 451.5C379.157 453.015 378.781 454.309 378.328 455.5C377.291 458.225 375.854 460.415 373.5 463.5C377.891 462.799 380.744 461.848 384.021 460C385.253 459.305 386.544 458.483 388 457.5Z" fill="white"/>
<path d="M190.5 445.5C191.748 446.082 192.619 446.284 195 446C195.5 441 190 442 190.5 445.5Z" fill="#111314"/>
<path d="M66 304C45.4678 331.428 46.0374 345.746 56 370.5C48.8765 356.982 41.0082 352.169 46 330C41.724 335.025 41.0355 338.511 40.5 345C37.7813 316.685 44.7417 306.521 64 293C55.5582 302.167 54.2848 306.224 53.5 313C57.8091 307.481 60.6469 305.876 66 304Z" fill="#2E2720"/>
<path d="M47 283C31.1448 281.413 25.0475 286.062 14.5 295C18.7237 282.678 23.094 276.456 41.5 269C38.5644 265.33 36.2347 261.422 34.5 257.395C24.1101 233.278 35.0632 204.94 65 198.527C70.9283 197.257 77.6011 196.847 85 197.5C74.4517 201.094 70.1064 203.066 66 206.5C79.3052 205.205 84.8434 206.722 91 214C61 208 45.8226 231.184 45 252.5C47.2353 247.43 48.9585 244.982 52.5 241C49.1 258.273 53.4823 263.843 64 272C53.4575 275.225 50.3886 277.813 47 283Z" fill="#2E2720"/>
<path d="M70.5 173.5C47.9481 184.444 42.0212 191.162 35.5 203.5L35.5222 203.262C36.3183 194.699 36.7715 189.826 49.5 179C44.8905 179.911 42.3959 181.083 38 183.5C58.6063 162.87 68.1865 163.905 85 167.5C69.3567 168.597 63.7827 170.057 57 173.5C60.3585 174.265 63.1349 174.344 70.5 173.5Z" fill="#2E2720"/>
<path d="M180.5 174.5C152.229 186.613 148.206 196.292 149 215.5C147.357 213.235 146.037 210.888 145.027 208.5C136.749 188.941 149.204 166.668 174.5 164.972C180.89 164.543 188.099 165.427 196 168C179.015 169.405 174.267 170.943 171 174.5C173.491 173.964 175.866 174.094 180.5 174.5Z" fill="#2E2720"/>
<path d="M118.5 159.5C111.946 173.992 106.587 175.954 96.5 177.5C115.651 159.67 98.1691 154.268 88.982 142C84.2574 135.691 81.7266 127.566 87.5 115C83.8928 118.843 82.78 121.744 81.5 127.5C81.9126 103.645 86.3446 91.8576 104.5 81.046C106.496 79.8571 108.659 78.68 111 77.5C106.649 83.6157 104.654 86.9555 103 92.5C107 89 115 88.7074 125.5 91.5C128.402 92.2719 131.059 92.8074 133.5 93.1295C170.588 98.0236 157.964 53.6663 203 41C196.92 46.4937 193.783 49.5286 191 54.5C198.833 52 206.278 51.0555 213 51.2222C226.444 51.5555 237 56.3333 242 62C201 53 179.654 75.926 171 99.5C180.956 91.3341 187.065 89.754 198.5 90C177.5 90 176.5 159.5 128.5 115C139.5 116.813 142.29 115.622 146.5 113C131.5 116.5 120 87.5 103.5 117C94.2993 133.45 108 154 132.5 154C124.81 155.639 121.825 156.862 118.5 159.5Z" fill="#2E2720"/>
<path d="M255 111.5C238.326 101.622 231.152 103.969 219 110.5C230.587 97.6832 246.5 89 270.5 105.5C261.884 107.29 257.969 108.492 255 111.5Z" fill="#2E2720"/>
<path d="M265 116.278C270.893 113.625 277.487 111.933 284.5 111.5C266.26 127.598 264.235 136.423 267 152C270.378 141.648 273.058 137.813 279 134C271.576 162.26 283 185 325 186.5C311.684 193.406 302.26 191.75 285 187.5C288.9 191.243 292.604 193.043 300.5 196C267.26 191.72 258.659 182.221 251.451 159.5C251.018 167.744 253.591 176.167 259 187.5C224.686 163.522 236.861 128.947 265 116.278Z" fill="#2E2720"/>
<path d="M329.5 147.5C317.003 134.556 318.022 128.714 321 118.5C322.5 133 332.5 144 353 148C341.765 149.966 335.981 148.472 326.5 142C328.235 143.977 329.006 145.226 329.5 147.5Z" fill="#2E2720"/>
<path d="M398 209.5C373 196 371.288 177.912 389.5 160C387.756 165.596 387.148 168.694 388 174C392 161 403 157.5 396.5 139.5C427.5 162.5 373 185.5 430 205.5C415 209.5 397 199.5 391 188C389.553 193.601 390.211 197.725 398 209.5Z" fill="#2E2720"/>
<path d="M422 143.5C409.581 113.049 396.518 103.461 363.5 100.5C372.11 97.5063 378.15 96.9943 392.5 99.5C389.614 96.0709 386.898 94.6001 382 92C414.379 99.4341 424.997 109.287 422 143.5Z" fill="#2E2720"/>
<path d="M426 101.5C416.074 75.3082 401.012 68.7748 365 65C376.351 57.1323 384.531 55.5729 403 59C407.449 51.5386 408.055 46.0291 406 34C416.733 43.3966 421.304 49.554 420.5 66C438.231 81.2636 440.931 93.2441 438.5 118C435.179 106.56 432.07 101.174 426 92C425.446 95.0058 425.52 97.1857 426 101.5Z" fill="#2E2720"/>
<path d="M338 87.5C300 71.5 311 25 348.5 29C344.085 23.7022 338.143 20.0909 331.5 18.0618C311.811 12.0479 285.968 19.933 275.5 39C282.003 34.5107 286.372 32.8851 297 33.5C284.217 47.9323 285.037 66.7855 296.374 78C298.784 80.3837 301.669 82.4223 305 84C300.69 78.3119 299.535 75.3861 299 70.5C311.599 82.6344 319.565 87.547 338 87.5Z" fill="#2E2720"/>
<path d="M555 253.5C542 189.5 487.5 221.5 477.5 188C494 205 507.5 192 525 199.5C520.2 195.347 516.262 194.076 509 192C535.698 191.09 544.393 195.76 551.5 211C547.086 206.151 544.239 205.118 539 204C562.812 222.893 562.353 233.83 555 253.5Z" fill="#2E2720"/>
<path d="M510.566 176.399L510 176.5L510.1 176.44C521.141 169.87 527.362 166.169 527 154C530.101 153.537 532.203 152.58 537 149C536.393 171.773 527.004 173.454 510.566 176.399Z" fill="#2E2720"/>
<path d="M497.5 132.5C485.925 133.221 481.058 131.806 474 127.5C477.263 132.102 481.493 135.962 486.309 139C510.271 154.116 548.755 148.888 555 113.5C550.154 117.592 545.282 120.401 540.5 122.142C523.079 128.483 506.86 120.643 497.5 109C497.5 94.3461 483.866 80.4227 469 74.365C462.562 71.7416 455.893 70.5934 450 71.5C485.288 83.8983 475.096 119.491 494.463 131C495.403 131.558 496.412 132.06 497.5 132.5Z" fill="#2E2720"/>
<path d="M644.5 246C558.354 243 665.5 181 568.5 159C583.743 156.009 593.758 155.256 603 161.208C594.829 155.024 589.508 152.923 579 151C613 149 641.5 182 623.485 214C622.807 227.27 623.791 239.472 644.5 246Z" fill="#2E2720"/>
<path d="M669.5 297C659.099 280.194 650.074 275.968 633 270C642.226 268.267 648.784 268.795 658.5 273.282C661.212 274.534 664.169 276.094 667.5 278C663.831 269.052 659.884 264.783 652 257.5C674.712 266.423 683.278 279.622 684.102 299.5C684.294 304.128 684.067 309.118 683.5 314.5C678.453 300.834 674.082 295.359 666 286C666.847 289.286 667.747 291.952 669.5 297Z" fill="#2E2720"/>
<path d="M668 403.5C687.651 373.098 686.887 356.485 668 327.5C669.168 334.851 669.125 338.324 668 343.5C657.479 318.295 648.331 312.57 631 305C659.554 334.161 665.744 351.213 650 383.5C658.858 377.665 663.743 374.318 666 362.5C672.828 373.613 674.273 381.775 668 403.5Z" fill="#2E2720"/>
<path d="M562.5 379.5C562.5 351 515 356.5 519.184 305C524.643 312.824 528.279 316.946 537.5 323C537.281 301.783 533.995 290.195 523.5 270C547.027 277.833 555.019 287.641 567 307.5C567.297 302.283 566.824 299.177 565.5 293.5C581.947 311.476 584.577 322.977 584.5 344.5C580.073 331.335 575.579 326.469 567 318.5C571.167 327.569 572.774 332.691 573 342C566.609 334.409 562.684 332.124 555.5 329C566.282 348.436 566.494 359.537 562.5 379.5Z" fill="#2E2720"/>
<path d="M147.5 917.499C93.3231 948.501 68.5351 966.101 24.5 997.5C29.5759 1002.35 34.7436 1007.06 40 1011.64C79.7752 980.911 103.821 965.396 147.5 938.499C143.318 949.888 140.837 960.566 139.915 970.5C138.771 982.831 140.03 994.018 143.418 1004C150.181 1015.33 155.057 1021.18 167.31 1030C131.191 1001 131.073 952.372 186.5 905.499C168.972 929.351 164.13 949.873 169.297 966C167.284 940.731 177.121 927.542 200 904.499C197.965 893.44 197.279 889.619 196.16 883.388L196 882.499C177.394 889.022 166.688 898.549 147.5 917.499Z" fill="#2E2720"/>
<path d="M650.5 836.999C691.908 853.612 715.267 863.939 757.279 884.999C636.445 1013.74 511.493 1083.59 394.5 1105.99C452.839 1061.01 480.426 1033.99 526 984.5C352.5 1081.5 221 1099.2 157.258 1027.66C225.559 1104.31 476.234 1059.54 650.5 836.999Z" fill="#2E2720"/>
<path d="M612 800.5C619.5 800.5 626.842 809.292 636 827.5C439.3 1068.93 236.757 1085.76 167.31 1030C150.462 1007.51 151.199 994.272 155 970.5C201 1084 471 998.499 584.5 853.499C568.003 864.979 558.493 872.558 542.17 885.567L541 886.499L577.471 846.499C587.579 836.529 597.602 826.034 607.5 814.999C614.5 805.499 614.75 803.498 612 800.5Z" fill="#2E2720"/>
<path d="M65 210.5C49.6286 219.243 39.8624 220.973 34.5 257.395C24.1101 233.278 35.0632 204.94 65 198.527C52.9962 206.197 49.4503 209.908 46 216C51.3348 212.2 55.7236 211.18 65 210.5Z" fill="#4B3B2F"/>
<path d="M158.5 179C161.29 173.14 165.295 170.126 174.5 164.972C149.204 166.668 136.749 188.941 145.027 208.5C144.5 192 155.5 183.5 166.5 176C163.148 176.075 161.434 176.911 158.5 179Z" fill="#4B3B2F"/>
<path d="M203 41C196.92 46.4937 193.783 49.5286 191 54.5C198.833 52 206.278 51.0555 213 51.2222C165.5 58.5 173.5 115 133.5 93.1295C170.588 98.0236 157.964 53.6663 203 41Z" fill="#4B3B2F"/>
<path d="M87.5 115C83.8928 118.843 82.78 121.744 81.5 127.5C81.9126 103.645 86.3446 91.8576 104.5 81.046C98.2112 88.4823 95.7725 92.543 94.5 99.5C100.209 94.5508 104.874 93.4521 114.5 93C97 100.5 85.5 117.376 88.982 142C84.2574 135.691 81.7266 127.566 87.5 115Z" fill="#4B3B2F"/>
<path d="M249 152C251.897 144.456 254.403 141.871 259 137.5C254.298 145.784 251.815 152.579 251.451 159.5C251.018 167.744 253.591 176.167 259 187.5C224.686 163.522 236.861 128.947 265 116.278C250.626 128.93 248.707 137.004 249 152Z" fill="#4B3B2F"/>
<path d="M297 33.5C286.372 32.8851 282.003 34.5107 275.5 39C285.968 19.933 311.811 12.0479 331.5 18.0618C320.698 19.7391 315.581 20.9301 310 24C315.219 23.1114 318.19 22.7733 324 24C309.518 30.3578 302.11 34.3185 299 47C302.262 43.7352 304.188 42.2025 308 40.5C297.572 52.6577 294.316 60.5683 296.374 78C285.037 66.7855 284.217 47.9323 297 33.5Z" fill="#4B3B2F"/>
<path d="M509 202.5C524.343 204.83 532.669 207.479 546 219.5C539.956 204.551 530.737 201.941 509 202.5Z" fill="#4B3B2F"/>
<path d="M497.5 132.5C485.925 133.221 481.058 131.806 474 127.5C477.263 132.102 481.493 135.962 486.309 139C499 143.5 511.952 144.601 523.5 137.5C516.616 134.681 514.626 133 513.5 129.5C526.253 131.415 533.266 129.337 540.5 122.142C523.079 128.483 506.86 120.643 497.5 109C497.5 94.3461 483.866 80.4227 469 74.365C483.604 84.5016 487.179 90.9141 489.5 103C486.7 100.3 485.321 99.6225 483 98.9999C491.132 109.084 493.734 116.029 494.463 131C495.403 131.558 496.412 132.06 497.5 132.5Z" fill="#4B3B2F"/>
<path d="M614.5 172.5C610.585 167.349 606.86 163.694 603 161.208C594.829 155.024 589.508 152.923 579 151C613 149 641.5 182 623.485 214C624.313 197.794 627.619 179.996 600.5 169C605.389 169.366 608.329 169.918 614.5 172.5Z" fill="#4B3B2F"/>
<path d="M667.5 278C663.831 269.052 659.884 264.783 652 257.5C674.712 266.423 683.278 279.622 684.102 299.5C680.329 290.384 678.519 287.822 675.5 285C674.691 287.818 675.628 289.765 674 291.5C670.232 283.451 666.375 279.652 658.5 273.282C661.212 274.534 664.169 276.094 667.5 278Z" fill="#4B3B2F"/>
<path d="M40 1011.64C79.7753 980.912 103.821 965.396 147.5 938.5C143.318 949.889 140.837 960.566 139.915 970.5C107.344 990.688 89.8833 1003.47 59.5 1027.66C52.8733 1022.53 46.3715 1017.19 40 1011.64Z" fill="#4B3B2F"/>
<path d="M167.31 1030C131.191 1001 131.073 952.373 186.5 905.5C168.972 929.352 164.13 949.874 169.297 966C191.475 1035.22 398.062 1023.46 577.471 846.5L541 886.5L542.17 885.568C558.492 872.559 568.003 864.979 584.5 853.5C471 998.5 201 1084 155 970.5C151.199 994.273 150.462 1007.51 167.31 1030Z" fill="#4B3B2F"/>
<path d="M139.915 970.5C107.344 990.687 89.8833 1003.47 59.5 1027.66C151.912 1099.23 268.596 1130.09 394.5 1105.99C452.839 1061.01 480.426 1033.99 526 984.5C352.5 1081.5 221 1099.19 157.258 1027.66C144.148 1012.95 137.757 993.761 139.915 970.5Z" fill="#3B3027"/>
<path d="M282.751 653.5C288.302 653.402 290.077 652.779 290.5 650.5C283.907 647.118 277.952 644.109 272.33 641.323C282 646.168 281 652.5 272.33 649.942C275.836 651.22 279.328 652.421 282.751 653.5Z" fill="#DA8C57"/>
<path d="M146 638C135.5 636.33 128 641.5 125.5 650C125.437 650.67 125.377 651.337 125.319 652C127 649 136 639.5 146 638Z" fill="#DA8C57"/>
<path d="M293.5 660.025C291.351 660.681 289.183 661.305 287 661.895C293.5 671.5 303.5 664 309.379 680C307.799 671.797 302.82 664.8 293.5 660.025Z" fill="#DA8C57"/>
<path d="M140.5 625C127 625 123.07 636.326 125.5 650C128 641.5 135.5 636.33 146 638C136 632.5 131.5 639.5 131.5 638C131.794 632.999 132.785 630.566 138.5 628C139.196 627.687 140.863 630.599 143.5 632.649C141.041 629.115 140.291 627.4 140.5 625Z" fill="#835634"/>
<path d="M298.5 653.5C301.5 655 305.5 660 304.5 663C302.501 661.401 299.303 660.761 293.5 660.025C300.276 662.97 304.213 665.456 311.5 671.5C312.592 652.396 302.824 651.698 289.5 646.5C290.624 648.01 290.987 648.874 290.5 650.5C290.076 652.779 288.302 653.402 282.75 653.5C285.383 654.33 287.974 655.086 290.5 655.75C291.472 655.833 292.47 655.917 293.5 656C293.5 653.5 295.5 652 298.5 653.5Z" fill="#835634"/>
<path d="M205 646.5C188.5 645.5 178.5 640.5 168.5 639.5C167.819 639.432 167.152 639.371 166.5 639.318C155.472 638.408 148.575 639.416 146 638C146.929 640.667 148.277 643.167 150 645.5C155.083 652.383 163.44 657.814 174 661.789C185.51 666.121 199.639 668.721 215 669.582C233.361 670.612 253.483 669.155 273 665.199C277.713 664.244 282.391 663.142 287 661.895C289.183 661.305 291.351 660.681 293.5 660.025C284.789 658.921 270.208 657.602 245 652.5C243.515 652.2 242.212 651.901 241 651.606C233.265 649.724 229.206 647.967 205 646.5Z" fill="#D67747"/>
<path d="M177.5 636C182.5 636.5 195 641.87 203.5 642.5C210.413 643.012 216.933 643.262 224 643.988C230.733 644.68 237.962 645.804 246.5 648C265.249 652.821 274.003 654.333 290.5 655.75C287.974 655.086 285.383 654.33 282.751 653.5C279.328 652.421 275.835 651.22 272.329 649.942C269.312 648.842 266.285 647.685 263.282 646.5C241.116 637.754 220.304 627.5 215 627.5C207.5 627.5 204 631 199 631C191 631 184.5 622.5 174.5 622.5C166.471 622.5 160.741 626.09 155.206 629C151.435 630.983 147.755 632.649 143.5 632.649C144.649 633.543 145.982 634.272 147.5 634.5C155.222 635.658 165.628 635.594 172.5 635.758C174.527 635.806 176.247 635.875 177.5 636Z" fill="#D67747"/>
<path d="M174 661.789C155.5 651 166.5 634.5 195 648C247 646 251 667 215 669.583C199.639 668.722 185.51 666.121 174 661.789Z" fill="#E98754"/>
<circle cx="267.5" cy="627.5" r="4.5" fill="#111213"/>
<ellipse cx="102.294" cy="504.672" rx="3.5" ry="4" transform="rotate(12.6991 102.294 504.672)" fill="#111213"/>
<path d="M297 395C290.648 397.741 288.2 400.158 284.5 405C264.103 425.517 256 440.5 252.5 463C263 450.5 272 456 287.5 474C280.371 460.127 281.221 454.952 293.5 451.5C294 448 298 449.467 314.5 437C337 420 385 439.5 406 466C409 468.44 412.131 469.893 420.5 471C410.046 465.228 406.21 462.025 403 456.5C397.5 453.5 391.5 440 341 428C319.735 422.947 309 430 300 438.5C295.11 443.119 289.5 443.667 287 444.5C284 445.5 276 449 278.5 461C272.892 449.098 270.264 442.712 274 436C265.057 440.581 261.762 445.125 257 454.5C259.686 444.941 263.031 438.169 269 432.344C277.5 419.5 290.5 415.5 295 405C297.319 403.117 299.216 401.903 303.5 399.5C297.672 400.48 295.025 402.154 290.5 405.5C291.408 403.769 292.548 402.492 295 400C292.603 401.074 290.745 402.335 287.5 404.5C289.609 401.242 291.906 399.107 297 395Z" fill="#BD7848"/>
<path d="M299 431C292 438.5 275 433.5 292 418C286.136 424.902 287.461 433.476 305.711 426.854C305.97 426.754 306.233 426.657 306.5 426.562C306.233 426.662 305.97 426.76 305.711 426.854C302.877 427.946 300.556 429.332 299 431Z" fill="#BD7848"/>
<path d="M392.5 460.5C387.171 464.19 381.841 466.535 371 467.811C383.064 468.711 390.015 469.872 400.5 465.249C397.948 463.555 395.606 462.185 392.5 460.5Z" fill="#BD7848"/>
<path d="M391 481.5C363.723 490.097 353.633 487.329 336.241 481.5C333.32 480.534 330.519 479.398 327.937 478.164C335.789 483.17 347 488.5 364 490.579C365.01 490.637 366.01 490.672 367 490.682C374.5 490.764 382.324 486.85 391 481.5Z" fill="#BD7848"/>
<path d="M306.5 418C306.5 413 320 409 336.5 407.43C320 410.5 311 421.5 328 424C314.5 423.28 306.5 424.5 306.5 418Z" fill="#BD7848"/>
<path d="M107.5 444.5C112.353 442.68 114.836 441.203 118.5 437C126.217 445.759 134.978 448.429 145 448.856C140.469 450.125 137.18 450.24 129.5 449.041C127.489 448.317 125.36 447.469 123 446.5C120.009 444.503 118.872 443.171 117.5 440.5C115.886 442.017 114.41 443.326 112.977 444.5C108.634 448.059 104.69 450.38 98.5 453.5C102.807 449.801 106.5 443 106.5 443C99.1175 445.632 98.4919 444.168 96 442.709C98.4153 443.523 101.239 443.044 104 441.978C107.125 441.216 108.872 440.788 112.5 439.5C111.249 441.524 109.864 442.589 107.5 444.5Z" fill="#DB8D58"/>
<path d="M112.5 425C107.779 429.961 106.376 433.018 104 438.5C97.4536 447.257 87.5 421.5 92.5 402.5C90.7536 403.131 89.594 403.945 87.5 405.5C88.5173 403.276 89.3424 401.999 92.5 399.5C91.2705 399.641 90.2489 399.863 89.2211 400.5C92.2599 398.379 94.8101 397.294 100.5 395.5C96.7733 395.57 95.1576 396.016 92.5 397C94.6491 394.561 97.3158 393.602 104.5 392.5C100.685 391.571 98.6467 391.936 95 392.5C98.4988 390.309 102.601 389.633 115.954 390C114.554 389.687 113.267 389.427 112 389.207C118 390 120 387.5 134.5 390.329C137.196 391.153 139.841 391.843 142.5 392.212C162.5 397 162.641 411.508 158 411.107C157.022 411.054 156.022 411.017 155 411C149.792 410.912 145.149 411.096 141 411.508C158 403.5 131.5 384 108 396C97 402.5 98.5 425 115.954 419.5C112.478 421.934 109.968 424.691 108 427.5C109.862 426.068 110.821 425.643 112.5 425Z" fill="#DB8D58"/>
<path d="M172.5 474C187 466 190.5 462.5 191.632 475.5C192.128 473.329 192.648 471.18 193.212 469C193.212 463.5 191.593 461.702 187 464.5C189.5 453 165.5 472 150.5 467.5C170.546 462.469 176.407 458.743 174 449.954C166.524 450.527 158.115 452 150.5 452C160.5 452 161.812 460.5 154.5 463.5C142.795 468.303 135.623 467.35 125 463.641C123.569 463.142 122.076 462.592 120.5 462C134.65 473.272 163.5 471.5 179.5 464.5C179.672 468.32 176.952 470.355 172.5 474Z" fill="#DB8D58"/>
<path d="M106.5 438.5H110.5C108.557 439.795 106.3 441.09 104 441.978C101.239 443.044 98.4153 443.523 96 442.71C98.5 443.551 102.5 440.507 104 438.5C117.908 419.894 126.5 413.5 154.5 413.5C181.5 413.5 193.3 431.5 198.5 438C200.5 440.5 202.227 441.399 200.5 445.5C197.241 454.79 195.008 462.051 193.212 469C193.212 463.5 191.593 461.702 187 464.5C189.5 453 165.5 472 150.5 467.5C170.546 462.469 176.407 458.743 174 449.955C182.231 449.324 189.332 449.784 193 454.5C191.495 450.177 190.325 447.993 184 447.257C187.555 447.327 191.22 447.549 195 448C198 448.5 199.324 445.203 197.5 442C178 411 135 405 106.5 438.5Z" fill="#A1673E"/>
<path d="M202 410C204.096 412.326 205.644 415.027 206.674 418C198.427 404.897 193.095 402.564 183.5 399C185.649 400.528 187.542 402.033 189.2 403.5C197 413.5 192.5 419.5 183.5 417.679C178.976 415.384 173.059 413.124 165.5 411.907C163.199 411.537 160.746 411.264 158.134 411.115C158.09 411.114 158.045 411.111 158 411.108C158.045 411.11 158.089 411.113 158.134 411.115C162.636 411.228 162.306 396.954 142.5 392.212C143.827 392.396 145.158 392.5 146.5 392.5C158 393 165.5 389 179.5 396.5C177.586 393.359 175.499 391.81 172 389C177.099 391.116 179.639 392.787 183.5 397C182.341 393.021 180.937 391.231 178.5 388C181.004 389.139 182.423 390.651 185 394.5C184.83 393.819 184.634 393.153 184.413 392.5C186.092 392.819 187.779 394.525 191 398C190.161 395.703 189.952 394.616 190 393C191.407 393.869 192.191 394.818 193.5 397.5C192.816 394.726 192.703 393.301 193 391C194.417 392.154 194.655 394.359 195 398.5C195.441 396.421 195.839 395.503 197 394.5C197.42 395.855 197.342 396.915 197 399C199.017 402.136 200.113 404.48 202 410Z" fill="#A1673E"/>
<path d="M313.5 403C305.532 404.315 301.525 404.71 295 405C290.5 415.5 277.5 419.5 269 432.344C274.221 427.248 281.45 422.877 292 418C286.053 425 287.5 433.721 306.5 426.562C312.375 424.477 320.224 423.585 328 424C314.5 423.28 306.5 424.5 306.5 418C306.5 413 320 409 336.5 407.43C331.985 407.369 327.059 407.108 321.5 406.5C323.899 405.997 324.576 405.493 325.5 404.5C318.646 405.683 314.819 405.881 308 406C311.465 404.865 312.382 404.2 313.5 403Z" fill="#A1673E"/>
<path d="M189.2 403.5C204.904 417.392 199.497 427.831 190 421.5C188.267 420.344 186.116 419.006 183.5 417.679C192.5 419.5 197 413.5 189.2 403.5Z" fill="#835635"/>
<path d="M313.5 403C305.532 404.315 301.525 404.71 295 405C290.5 415.5 277.5 419.5 269 432.344C274.221 427.248 281.45 422.877 292 418C286.053 425 287.5 433.721 306.5 426.562C312.375 424.477 320.224 423.585 328 424C314.5 423.28 306.5 424.5 306.5 418C306.5 413 320 409 336.5 407.43C331.985 407.369 327.059 407.108 321.5 406.5C323.899 405.997 324.576 405.493 325.5 404.5C318.646 405.683 314.819 405.881 308 406C311.465 404.865 312.382 404.2 313.5 403Z" fill="#835635"/>
<path d="M299 431C292 438.5 275 433.5 292 418C286.136 424.902 287.461 433.476 305.711 426.854C305.97 426.754 306.233 426.657 306.5 426.562C306.233 426.662 305.97 426.76 305.711 426.854C302.877 427.946 300.556 429.333 299 431Z" fill="#835635"/>
</svg>
