<svg xmlns="http://www.w3.org/2000/svg" width="32" height="32" viewBox="0 0 32 32" fill="none"><metadata><rdf:RDF xmlns:rdf="http://www.w3.org/1999/02/22-rdf-syntax-ns#" xmlns:dc="http://purl.org/dc/elements/1.1/"><rdf:Description><dc:creator>RealFaviconGenerator</dc:creator><dc:source>https://realfavicongenerator.net</dc:source></rdf:Description></rdf:RDF></metadata><rect width="32" height="32" rx="1" fill="#495759"></rect><path fill-rule="evenodd" clip-rule="evenodd" d="M29.0667 2C29.3934 2 29.5567 2 29.6815 2.06358C29.7913 2.11951 29.8805 2.20874 29.9364 2.31851C30 2.44329 30 2.60664 30 2.93333V4.95556C30 5.28225 30 5.4456 29.9364 5.57038C29.8805 5.68014 29.7913 5.76938 29.6815 5.82531C29.5567 5.88889 29.3934 5.88889 29.0667 5.88889H7.21111C6.88441 5.88889 6.72107 5.88889 6.59628 5.95247C6.48652 6.00839 6.39728 6.09763 6.34136 6.20739C6.27778 6.33218 6.27778 6.49553 6.27778 6.82222V16.6222C6.27778 16.9489 6.27778 17.1123 6.34136 17.237C6.39728 17.3468 6.48652 17.4361 6.59628 17.492C6.72107 17.5556 6.88441 17.5556 7.21111 17.5556H24.7889C25.1156 17.5556 25.2789 17.5556 25.4037 17.492C25.5135 17.4361 25.6027 17.3468 25.6586 17.237C25.7222 17.1123 25.7222 16.9489 25.7222 16.6222V14.6C25.7222 14.2733 25.7222 14.11 25.6586 13.9852C25.6027 13.8754 25.5135 13.7862 25.4037 13.7302C25.2789 13.6667 25.1156 13.6667 24.7889 13.6667H11.1C10.7733 13.6667 10.61 13.6667 10.4852 13.6031C10.3754 13.5472 10.2862 13.4579 10.2302 13.3482C10.1667 13.2234 10.1667 13.4489 10.1667 13.1222V10.7111C10.1667 10.3844 10.1667 10.2211 10.2302 10.0963C10.2862 9.98652 10.3754 9.89728 10.4852 9.84136C10.61 9.77778 10.7733 9.77778 11.1 9.77778H29.0667C29.3934 9.77778 29.5567 9.77778 29.6815 9.84136C29.7913 9.89728 29.8805 9.98652 29.9364 10.0963C30 10.2211 30 10.3844 30 10.7111V29.0667C30 29.3934 30 29.5567 29.9364 29.6815C29.8805 29.7913 29.7913 29.8805 29.6815 29.9364C29.5567 30 29.3934 30 29.0667 30H2.93333C2.60664 30 2.44329 30 2.31851 29.9364C2.20874 29.8805 2.11951 29.7913 2.06358 29.6815C2 29.5567 2 29.3934 2 29.0667V2.93333C2 2.60664 2 2.44329 2.06358 2.31851C2.11951 2.20874 2.20874 2.11951 2.31851 2.06358C2.44329 2 2.60664 2 2.93333 2L29.0667 2ZM7.21111 21.8333C6.88441 21.8333 6.72107 21.8333 6.59628 21.8969C6.48652 21.9528 6.39728 22.0421 6.34136 22.1518C6.27778 22.2766 6.27778 22.44 6.27778 22.7667V24.7889C6.27778 25.1156 6.27778 25.2789 6.34136 25.4037C6.39728 25.5135 6.48652 25.6027 6.59628 25.6586C6.72107 25.7222 6.88441 25.7222 7.21111 25.7222H24.7889C25.1156 25.7222 25.2789 25.7222 25.4037 25.6586C25.5135 25.6027 25.6027 25.5135 25.6586 25.4037C25.7222 25.2789 25.7222 25.1156 25.7222 24.7889V22.7667C25.7222 22.44 25.7222 22.2766 25.6586 22.1518C25.6027 22.0421 25.5135 21.9528 25.4037 21.8969C25.2789 21.8333 25.1156 21.8333 24.7889 21.8333H7.21111Z" fill="white"></path></svg>